<svg width="16" height="16" viewBox="0 0 16 16" fill="none" xmlns="http://www.w3.org/2000/svg">
<g clip-path="url(#clip0_4_35)">
<path d="M15.5603 2.31944L13.6805 0.439719C13.3873 0.146531 13.003 0 12.6188 0C12.2342 0 11.8497 0.146781 11.5565 0.440344L8.99682 3.00281L4.26872 4.33806C3.63216 4.51772 3.12444 5.002 2.9135 5.63075L0.0953774 13.5531C-0.127185 14.2211 0.0466899 14.9575 0.544596 15.4554C0.89894 15.8097 1.37413 16 1.85944 16C2.0561 16 2.25431 15.9688 2.44688 15.9046L10.3692 13.0865C10.998 12.8756 11.4823 12.3678 11.6619 11.7312L12.9972 7.00319L15.5596 4.4435C16.1466 3.85725 16.1468 2.90606 15.5603 2.31944ZM10.2184 11.3238C10.1733 11.4838 10.0513 11.611 9.8665 11.6733L2.36491 14.3421L6.04785 10.6591C6.18863 10.7141 6.33931 10.7503 6.4996 10.7503C7.18991 10.7503 7.7495 10.1907 7.7495 9.50041C7.7495 8.81009 7.18991 8.25047 6.4996 8.25047C5.80928 8.25047 5.24966 8.81006 5.24966 9.50041C5.24966 9.66066 5.28591 9.81134 5.34085 9.95216L1.65835 13.6347L4.33553 6.10778C4.38894 5.94869 4.51625 5.82666 4.67635 5.7815L9.38881 4.45066L11.5493 6.61116L10.2184 11.3238Z" fill="#BAB08F"/>
</g>
<defs>
<clipPath id="clip0_4_35">
<rect width="16" height="16" fill="white"/>
</clipPath>
</defs>
</svg>
