<svg width="34" height="32" viewBox="0 0 34 32" fill="none" xmlns="http://www.w3.org/2000/svg">
<path d="M20.1977 31.0297C19.6324 29.576 19.2286 28.1223 18.9863 26.6686C18.8248 25.2149 18.744 23.963 18.744 22.9131C18.744 18.9558 19.4708 15.3619 20.9246 12.1314C22.3783 8.82019 24.1954 6.15504 26.376 4.136C28.6373 2.03619 30.8987 0.824757 33.16 0.501709V3.40915C31.3832 4.70133 29.9295 6.84152 28.7988 9.82971C27.7489 12.7371 27.224 15.6042 27.224 18.4309C27.224 19.4808 27.3047 20.6922 27.4663 22.0651C27.7086 23.4381 28.1124 24.6899 28.6777 25.8206C27.8701 26.8705 26.6587 27.9608 25.0434 29.0914C23.4282 30.1413 21.8129 30.7874 20.1977 31.0297ZM1.90513 31.0297C1.3398 29.576 0.935987 28.1223 0.693702 26.6686C0.532178 25.2149 0.451416 23.963 0.451416 22.9131C0.451416 18.9558 1.17827 15.3619 2.63199 12.1314C4.0857 8.82019 5.90284 6.15504 8.08342 4.136C10.3448 2.03619 12.6061 0.824757 14.8674 0.501709V3.40915C13.0907 4.70133 11.6369 6.84152 10.5063 9.82971C9.45637 12.7371 8.93142 15.6042 8.93142 18.4309C8.93142 19.4808 9.01218 20.6922 9.1737 22.0651C9.41599 23.4381 9.8198 24.6899 10.3851 25.8206C9.57751 26.8705 8.36608 27.9608 6.75084 29.0914C5.13561 30.1413 3.52037 30.7874 1.90513 31.0297Z" fill="#BAB08F"/>
</svg>
