<svg width="34" height="31" viewBox="0 0 34 31" fill="none" xmlns="http://www.w3.org/2000/svg">
<path d="M13.9314 0.380554C14.5775 1.83427 14.9813 3.28799 15.1428 4.7417C15.3044 6.11466 15.3851 7.36646 15.3851 8.49713C15.3851 12.4545 14.6583 16.0887 13.2045 19.4C11.7508 22.6305 9.89331 25.2552 7.63197 27.2743C5.4514 29.2933 3.23045 30.5047 0.969116 30.9086V28.0011C2.82664 26.6282 4.28035 24.488 5.33026 21.5806C6.38016 18.5924 6.90512 15.7253 6.90512 12.9794C6.90512 11.9295 6.82435 10.7181 6.66283 9.34513C6.50131 7.97218 6.0975 6.72037 5.4514 5.5897C6.25902 4.45903 7.47045 3.36875 9.08569 2.31885C10.7009 1.26894 12.3162 0.622842 13.9314 0.380554ZM32.224 0.380554C32.8701 1.83427 33.2739 3.28799 33.4354 4.7417C33.5969 6.11466 33.6777 7.36646 33.6777 8.49713C33.6777 12.4545 32.9508 16.0887 31.4971 19.4C30.0434 22.6305 28.1859 25.2552 25.9245 27.2743C23.744 29.2933 21.523 30.5047 19.2617 30.9086V28.0011C21.1192 26.6282 22.5729 24.488 23.6228 21.5806C24.6727 18.5924 25.1977 15.7253 25.1977 12.9794C25.1977 11.9295 25.1169 10.7181 24.9554 9.34513C24.7939 7.97218 24.3901 6.72037 23.744 5.5897C24.5516 4.45903 25.763 3.36875 27.3783 2.31885C28.9935 1.26894 30.6087 0.622842 32.224 0.380554Z" fill="#BAB08F"/>
</svg>
